<svg xmlns="http://www.w3.org/2000/svg" width="196" height="154" fill="none" viewBox="0 0 196 154"><mask id="mask0_9998_465607" width="196" height="154" x="0" y="0" maskUnits="userSpaceOnUse" style="mask-type:alpha"><rect width="195.24" height="153.403" fill="#F9F1FD" rx="6.261"/></mask><g mask="url(#mask0_9998_465607)"><path fill="#0F3534" d="M53.489 137.914a.503.503 0 0 1-.503-.494c-.096-5.236 4.101-7.505 4.28-7.598a.503.503 0 1 1 .47.89c-.01.005-.98.527-1.922 1.617-1.244 1.441-1.857 3.148-1.822 5.073a.503.503 0 0 1-.494.512h-.01"/><path fill="#144746" d="M51.866 124.91s-5.843-11.021 15.12-18.748c1.08-.398 2.174.557 1.915 1.68-1.323 5.737-5.662 19.152-17.035 17.068"/><path fill="#0F3534" d="m46.113 136.918-.072-.006a.502.502 0 0 1-.426-.569c1.452-10.027 8.923-14.689 9.77-15.189a.508.508 0 0 1 .693.173.501.501 0 0 1-.172.689l-.01.006c-.354.208-2.219 1.36-4.222 3.609-2.767 3.106-4.47 6.758-5.063 10.856a.504.504 0 0 1-.498.431"/><path fill="#0F3534" d="M49.198 136.918h-.024a.504.504 0 0 1-.48-.527c.203-4.29-2.52-8.204-2.547-8.243a.503.503 0 1 1 .822-.58c.12.171 2.95 4.239 2.731 8.871a.503.503 0 0 1-.502.479M50.644 137.653h-.013a.504.504 0 0 1-.49-.516l.428-16.318a.503.503 0 1 1 1.007.026l-.429 16.318a.503.503 0 0 1-.503.49"/><path fill="#144746" d="M47.14 128.424s-11.888 3.779-15.742-18.227c-.199-1.135.937-2.04 1.995-1.585 5.409 2.327 17.832 8.995 13.748 19.812"/><path fill="#419794" d="M54.843 132.661s10.687 6.434 19.543-14.077c.457-1.057-.438-2.201-1.573-2.004-5.8 1.009-19.432 4.611-17.97 16.081M52.879 126.463c-.828 1.711-3.325 1.523-3.894-.291-2.535-8.094-6.782-25.252 2.013-27.22 9.867-2.21 6.561 17.829 1.88 27.511Z"/><path fill="#0F3534" d="M50.86 127.562h-.01a.276.276 0 0 1-.264-.286l.929-22.939a.275.275 0 0 1 .549.022l-.93 22.939a.275.275 0 0 1-.273.264ZM55.134 132.693a.275.275 0 0 1-.174-.486l12.703-10.396a.274.274 0 1 1 .348.425l-12.703 10.396a.277.277 0 0 1-.174.061"/><path fill="#C85629" d="m64.302 135.839-.709 3.247-.23 1.059-.49 2.241-.231 1.059-2.056 9.491H42.052l-2.055-9.491-.232-1.059-.49-2.241-.23-1.059-.71-3.247h25.967Z"/><path fill="#AD3F27" d="m63.596 139.086-.231 1.06H39.278l-.231-1.06h24.549M62.874 142.386l-.231 1.059H39.997l-.231-1.059h23.108Z"/><path fill="#9D4E5A" d="M37.62 152.937h29.432c.49 0 .886.396.886.885v3.616c0 .49-.396.886-.886.886H37.62a.885.885 0 0 1-.886-.886v-3.616c0-.489.397-.885.886-.885Z"/><path fill="#1C4861" d="m87.484 137.442.069 34.812c-.174 4.808.01 17.986.33 22.786l1.778 113.548h24.389l-2.312-122.03 19.266 122.03 23.85-.526-18.281-162.894-24.054-6.175-25.035-1.551"/><path fill="#FCB4A8" d="m85.341 142.04-10.755 31.636 5.375 2.832 13.556-27.791-8.176-6.677"/><path fill="#fff" d="M96.11 80.257s-3.99.15-5.763 12.157c-1.773 12.008-2.722 29.966-2.722 29.966l-11.148 36.893 15.443 7.037 11.054-50.176-6.864-35.877ZM123.348 74.285l13.503 5.975 9.618 15.245-12.387 25.165 14.935 66.937-40.945-4.273-1.447-28.318 2.895-55.679 13.828-25.052"/><path fill="#fff" d="m111.12 74.283-15.014 5.975-.068.362a84.899 84.899 0 0 0-.31 29.285l-4.666 15.476-9.093 64.889 22.208-8.385 2.444-26.871 2.894-55.678 1.605-25.053"/><path fill="#144746" d="m123.336 74.283-13.828 25.053 1.604-25.053h12.224Z"/><path fill="#14090A" d="M109.254 99.323 106.359 155l.525.027 2.889-55.678M94.362 95.42c-.01.03-2.989 8.536-3.56 29.957l.262.007-.262-.018-2.607 39.353.525.035 2.606-39.358v-.005c.283-10.688 1.17-18.146 1.982-22.927.41-2.39.797-4.111 1.086-5.234a25.01 25.01 0 0 1 .435-1.542c.02-.065.031-.095.031-.095l-.498-.173"/><path fill="#14090A" d="m123.381 74.73 8.669 9.822-8.233 2.074 1.998 6.576-16.393 5.89.173.494 16.87-6.059L124.477 87l8.538-2.15-9.24-10.468-.394.347"/><path fill="#14090A" d="m110.654 74.36-8.889 8.362 4.447 2.936-4.767 5.048 7.872 8.803.393-.35-7.551-8.443 4.866-5.151-4.416-2.915 8.407-7.908-.362-.382"/><path fill="#fff" d="M136.858 80.258s14.452 5.052 39.214 37.595l-9.838 13.641-32.57-31.56 3.194-19.676Z"/><path fill="#6D3611" d="m145.422 100.324 13.188 48.663-33.75 8.29-13.508-47.873 34.07-9.08Z"/><path fill="#E5F6FE" d="m144.044 103.431 11.676 43.691-29.878 7.443-11.959-42.982 30.161-8.152Z"/><circle cx="132.477" cy="120.863" r="9.297" fill="#419794"/><path fill="#FCB4A8" d="m154.396 125.385-23.724 12.381 3.293 6.848 23.598-8.112-3.167-11.117"/><path fill="#FCB4A8" d="M131.472 135.896s-15.916-2.903-15.323 2.822c.593 5.726 3.435 19.243 17.814 5.894l-2.491-8.716"/><path fill="#FCB4A8" d="m133.494 137.859-3.66-3.625a9.076 9.076 0 0 0-4.625-2.668l-3.288-.752a1.743 1.743 0 0 0-1.956.927 1.748 1.748 0 0 0 .598 2.237l4.73 3.129 8.201.752"/><path fill="#fff" d="m165.031 116.759-22.89 13.157 4.562 12.671 27.017-10.852c4.746-2.339 6.314-8.345 3.314-12.704-2.701-3.924-8.06-4.938-12.003-2.272"/><path fill="#14090A" d="m155.721 122.199 9.439-5.208-.252-.458-9.439 5.207"/><path fill="#FCB4A8" d="M130.739 42.19s2.769-2.152 4.798.404c3.073 3.883-2.307 10.915-6.99 7.294l2.192-7.698"/><path fill="#15090A" d="M134.273 44.684h-.021c-.131 0-.828.019-1.694.408-.86.388-1.887 1.157-2.637 2.624a.262.262 0 1 0 .466.24c.698-1.36 1.616-2.036 2.386-2.386.771-.349 1.395-.362 1.479-.361h.005a.257.257 0 0 0 .268-.255.258.258 0 0 0-.252-.27"/><path fill="#FCB4A8" d="M103.601 42.359s-2.717-2.109-4.699.395c-3.015 3.805 2.26 10.695 6.849 7.148l-2.15-7.543Z"/><path fill="#15090A" d="M100.273 45.209h.005c.068 0 .635.011 1.353.358.713.347 1.589 1.023 2.286 2.388.069.129.226.18.357.114a.262.262 0 0 0 .11-.353c-.75-1.462-1.715-2.231-2.527-2.621-.808-.391-1.458-.41-1.579-.41h-.026a.263.263 0 1 0 .021.524"/><path fill="#15090A" d="M100.266 35.428c0 9.203 7.462 16.664 16.665 16.664s16.665-7.46 16.665-16.664-6.188-17.205-16.665-17.205c-10.252 0-16.665 8.001-16.665 17.205"/><path fill="#FCB4A8" d="m122.937 55.768 1.128 19.406 1.012.07c-4.269.85-10.027.85-14.295.002l-.446-.088 1.762-19.795 10.839.405Z"/><path fill="#150A0A" d="m122.569 58.614-11.264 5.474.556-6.88 10.708 1.406"/><path fill="#FCB4A8" d="M130.558 35.13s2.066 24.404-13.021 24.706c-16.298.326-14.243-24.706-14.243-24.706s.089-12.81 13.755-12.81c12.528 0 13.509 12.81 13.509 12.81Z"/><path fill="#13090A" d="m116.84 42.25-.136 2.855a.262.262 0 0 0 .262.274l1.573.006a.263.263 0 0 0 0-.525l-1.3-.004.125-2.58a.262.262 0 0 0-.251-.275.259.259 0 0 0-.273.25"/><path fill="#F6FCF5" d="m116.935 44.687 10.86 2.454s.761 5.648-1.804 8.86c-5.474 6.846-15.501 3.839-18.186-.637 0 0-2.055-3.36-1.342-8.147l10.472-2.53"/><path fill="#F6FCF5" d="m125.29 49.523 4.73-3.49.126-1.122-5.349 3.945.493.666ZM109.445 49.531l.462-.686-6.188-4.162.194 1.126 5.532 3.722Z"/><path fill="#14090A" d="M113.291 40.47a1.1 1.1 0 0 1-2.197-.008 1.102 1.102 0 0 1 1.106-1.094 1.096 1.096 0 0 1 1.091 1.102ZM124.072 40.51a1.101 1.101 0 0 1-1.101 1.093 1.097 1.097 0 0 1-1.096-1.101 1.1 1.1 0 0 1 2.197.007ZM120.358 32.609s-.325 1.182 1.516 1.207c1.395.02 3.094.383 3.901.554.456.097.944-.08 1.159-.417a.619.619 0 0 0-.105-.82c-.498-.455-2.333-1.502-4.027-1.544-2.182-.053-2.444 1.02-2.444 1.02ZM114.74 32.638s.325 1.182-1.515 1.208c-1.395.019-3.094.382-3.902.553-.456.098-.944-.08-1.159-.417a.618.618 0 0 1 .105-.819c.498-.456 2.334-1.503 4.028-1.544 2.181-.054 2.443 1.02 2.443 1.02Z"/><path fill="#13090A" d="M116.4 40.77h-.262a5.084 5.084 0 0 1-5.092 5.09 5.07 5.07 0 0 1-3.597-1.49 5.07 5.07 0 0 1-1.495-3.6c0-1.406.572-2.677 1.495-3.6a5.072 5.072 0 0 1 3.597-1.49 5.086 5.086 0 0 1 5.092 5.09h.524a5.614 5.614 0 0 0-5.616-5.615 5.617 5.617 0 0 0-5.616 5.615 5.617 5.617 0 0 0 11.232 0h-.262ZM129.791 40.77h-.263a5.07 5.07 0 0 1-1.494 3.6 5.061 5.061 0 0 1-3.597 1.491 5.086 5.086 0 0 1-5.092-5.09 5.088 5.088 0 0 1 8.689-3.6 5.072 5.072 0 0 1 1.494 3.6h.525a5.617 5.617 0 0 0-11.233 0 5.617 5.617 0 0 0 11.233 0h-.262Z"/><path fill="#13090A" d="M116.406 41.03h2.675v-.525h-2.675v.524Z"/><path fill="#15090A" d="M105.756 25.208s3.456 6.81-3.545 11.31l.996-7.661 2.549-3.649"/><path fill="#15090A" d="m113.998 21.853.346-.612c.141-.25 3.188-2.302 6.958-3.831 1.437-2.076 4.017-3.466 6.975-3.466 4.51 0 8.17 3.23 8.17 7.215 0 1.34-.42 2.592-1.143 3.667-.388.72-.986 1.328-1.752 1.838-1.174.876-2.627 1.462-4.226 1.644-8.821 1.989-23.52-.468-23.52-.468l-.634-1.598 8.826-4.389Z"/><path fill="#15090A" d="M127.795 19.97s-10.142-6.375-14.735-4.423c-5.716 2.431 2.213 6.003 4.169 9.223l10.566-4.8Z"/><path fill="#15090A" d="M113.632 18.89s-1.804-.103-4.735.374c-6.424 1.044-10.887 6.927-10.095 13.387.346 2.806 1.09 5.854 2.554 8.69l2.37-14.009 6.188-5.013 3.718-3.429M130.143 22.377s3.745 4.559 3.451 13.053l-6.539-11.236 3.088-1.817"/></g></svg>